<svg width="1082" height="236" viewBox="0 0 1082 236" fill="none" xmlns="http://www.w3.org/2000/svg">
<g filter="url(#filter0_d_5049_84)">
<g filter="url(#filter1_i_5049_84)">
<path d="M245 200.562L232.284 84.5383L153.26 177.268L245 200.562Z" fill="url(#paint0_linear_5049_84)"/>
<path d="M245 200.562L232.284 84.5383L153.26 177.268L245 200.562Z" fill="url(#paint1_linear_5049_84)" fill-opacity="0.28"/>
</g>
<g filter="url(#filter2_f_5049_84)">
<path d="M233.757 108.373L193.284 160.988L222.515 193.817L244.55 200.112L233.757 108.373Z" fill="url(#paint2_linear_5049_84)"/>
</g>
<g filter="url(#filter3_if_5049_84)">
<path d="M176.195 181.225L191.935 161.887L219.817 193.816L176.195 181.225Z" fill="url(#paint3_linear_5049_84)"/>
</g>
<g opacity="0.9" filter="url(#filter4_if_5049_84)">
<path d="M231.509 86.3372L154.609 177.177L176.195 181.674L234.207 109.722L231.509 86.3372Z" fill="url(#paint4_linear_5049_84)"/>
</g>
<g filter="url(#filter5_i_5049_84)">
<path d="M245 200.562L232.284 84.5383L153.26 177.268L245 200.562Z" fill="url(#paint5_linear_5049_84)" fill-opacity="0.5"/>
</g>
<g filter="url(#filter6_ii_5049_84)">
<path d="M17 206.408L37.6864 34.6213L161.805 155.142L17 206.408Z" fill="url(#paint6_linear_5049_84)"/>
<path d="M17 206.408L37.6864 34.6213L161.805 155.142L17 206.408Z" fill="url(#paint7_linear_5049_84)"/>
</g>
<g filter="url(#filter7_i_5049_84)">
<path d="M113.237 107.923L47.5798 195.166L113.237 171.331L140.669 134.006L113.237 107.923Z" fill="url(#paint8_linear_5049_84)"/>
</g>
<g filter="url(#filter8_i_5049_84)">
<path d="M86.4496 82.7395L23.351 163.851L17.4497 205.958L46.9562 194.878L113.686 108.89L86.4496 82.7395Z" fill="url(#paint9_linear_5049_84)"/>
<path d="M86.4496 82.7395L23.351 163.851L17.4497 205.958L46.9562 194.878L113.686 108.89L86.4496 82.7395Z" fill="url(#paint10_linear_5049_84)" fill-opacity="0.4"/>
</g>
<g filter="url(#filter9_ii_5049_84)">
<path d="M224.314 16.1833L83.1064 177.627L124.479 212.254L231.959 84.5384L224.314 16.1833Z" fill="url(#paint11_linear_5049_84)"/>
</g>
<path d="M224.314 16.1833L83.1064 177.627L124.479 212.254L231.959 84.5384L224.314 16.1833Z" stroke="url(#paint12_linear_5049_84)"/>
</g>
<path d="M285.366 41.9106H316.466L349.312 122.047H350.71L383.557 41.9106H414.656V161.183H390.196V83.5512H389.206L358.339 160.601H341.683L310.817 83.2601H309.827V161.183H285.366V41.9106ZM431.687 161.183V71.7288H456.497V161.183H431.687ZM444.15 60.1976C440.462 60.1976 437.297 58.9745 434.657 56.5285C432.056 54.0437 430.755 51.0735 430.755 47.618C430.755 44.2013 432.056 41.27 434.657 38.824C437.297 36.3391 440.462 35.0967 444.15 35.0967C447.838 35.0967 450.983 36.3391 453.585 38.824C456.225 41.27 457.545 44.2013 457.545 47.618C457.545 51.0735 456.225 54.0437 453.585 56.5285C450.983 58.9745 447.838 60.1976 444.15 60.1976ZM473.091 161.183V71.7288H497.143V87.3368H498.075C499.706 81.7847 502.443 77.5915 506.287 74.7572C510.13 71.8841 514.556 70.4476 519.565 70.4476C520.807 70.4476 522.147 70.5252 523.583 70.6805C525.02 70.8358 526.282 71.0494 527.369 71.3211V93.3353C526.204 92.9859 524.593 92.6753 522.535 92.4035C520.477 92.1317 518.594 91.9958 516.886 91.9958C513.236 91.9958 509.975 92.7918 507.102 94.3836C504.268 95.9367 502.016 98.1109 500.346 100.906C498.716 103.702 497.9 106.924 497.9 110.574V161.183H473.091ZM559.862 162.872C554.155 162.872 549.069 161.882 544.604 159.902C540.139 157.883 536.605 154.913 534.004 150.992C531.442 147.031 530.16 142.1 530.16 136.199C530.16 131.229 531.073 127.056 532.898 123.678C534.722 120.3 537.207 117.582 540.352 115.524C543.497 113.466 547.069 111.913 551.068 110.865C555.106 109.817 559.338 109.079 563.764 108.652C568.967 108.109 573.16 107.604 576.344 107.138C579.527 106.633 581.837 105.895 583.274 104.925C584.711 103.954 585.429 102.518 585.429 100.615V100.266C585.429 96.5773 584.264 93.7236 581.935 91.7047C579.644 89.6857 576.382 88.6762 572.15 88.6762C567.685 88.6762 564.133 89.6663 561.493 91.6464C558.853 93.5877 557.105 96.0337 556.251 98.9845L533.305 97.1208C534.47 91.6852 536.761 86.9873 540.177 83.0271C543.594 79.028 548.001 75.9608 553.398 73.8254C558.833 71.6512 565.123 70.564 572.267 70.564C577.237 70.564 581.993 71.1464 586.535 72.3112C591.117 73.476 595.174 75.2814 598.707 77.7274C602.279 80.1734 605.094 83.3183 607.152 87.162C609.21 90.967 610.238 95.529 610.238 100.848V161.183H586.71V148.779H586.011C584.575 151.574 582.653 154.039 580.246 156.175C577.838 158.271 574.946 159.922 571.568 161.125C568.19 162.29 564.288 162.872 559.862 162.872ZM566.967 145.75C570.617 145.75 573.839 145.032 576.635 143.595C579.43 142.12 581.624 140.14 583.216 137.655C584.808 135.17 585.604 132.355 585.604 129.21V119.717C584.827 120.222 583.759 120.688 582.4 121.115C581.08 121.503 579.586 121.872 577.916 122.222C576.247 122.532 574.577 122.823 572.908 123.095C571.238 123.328 569.724 123.542 568.365 123.736C565.453 124.163 562.91 124.842 560.736 125.774C558.561 126.706 556.872 127.968 555.669 129.56C554.465 131.113 553.863 133.054 553.863 135.384C553.863 138.761 555.086 141.343 557.533 143.129C560.017 144.877 563.162 145.75 566.967 145.75ZM666.507 196.592C658.471 196.592 651.579 195.486 645.833 193.273C640.125 191.099 635.583 188.128 632.205 184.362C628.827 180.596 626.633 176.364 625.624 171.666L648.57 168.58C649.269 170.366 650.375 172.035 651.89 173.588C653.404 175.141 655.403 176.384 657.888 177.315C660.412 178.286 663.479 178.771 667.09 178.771C672.487 178.771 676.932 177.451 680.427 174.811C683.96 172.21 685.726 167.842 685.726 161.707V145.342H684.678C683.591 147.827 681.96 150.176 679.786 152.389C677.612 154.602 674.816 156.408 671.4 157.806C667.983 159.203 663.906 159.902 659.169 159.902C652.453 159.902 646.338 158.349 640.824 155.243C635.35 152.098 630.982 147.303 627.721 140.858C624.498 134.374 622.887 126.182 622.887 116.281C622.887 106.148 624.537 97.6838 627.837 90.8893C631.137 84.0948 635.525 79.0086 640.999 75.6308C646.512 72.253 652.55 70.564 659.111 70.564C664.12 70.564 668.313 71.4182 671.691 73.1265C675.069 74.796 677.786 76.8926 679.844 79.4163C681.941 81.9012 683.552 84.3472 684.678 86.7544H685.61V71.7288H710.245V162.057C710.245 169.667 708.381 176.034 704.654 181.159C700.927 186.284 695.763 190.128 689.162 192.69C682.601 195.292 675.049 196.592 666.507 196.592ZM667.032 141.266C671.031 141.266 674.409 140.276 677.165 138.296C679.961 136.277 682.096 133.404 683.571 129.676C685.086 125.91 685.843 121.406 685.843 116.165C685.843 110.923 685.105 106.381 683.63 102.537C682.154 98.6545 680.019 95.6455 677.223 93.5101C674.428 91.3746 671.031 90.3069 667.032 90.3069C662.955 90.3069 659.519 91.4135 656.723 93.6265C653.928 95.8008 651.812 98.8292 650.375 102.712C648.939 106.594 648.221 111.079 648.221 116.165C648.221 121.329 648.939 125.794 650.375 129.56C651.851 133.287 653.967 136.18 656.723 138.237C659.519 140.256 662.955 141.266 667.032 141.266ZM767.475 162.931C758.273 162.931 750.352 161.067 743.713 157.34C737.113 153.574 732.027 148.254 728.455 141.382C724.883 134.471 723.097 126.298 723.097 116.864C723.097 107.662 724.883 99.5863 728.455 92.6365C732.027 85.6867 737.055 80.2705 743.539 76.3879C750.061 72.5053 757.71 70.564 766.485 70.564C772.386 70.564 777.88 71.5153 782.966 73.4177C788.091 75.2814 792.556 78.0962 796.361 81.8623C800.205 85.6284 803.194 90.3652 805.33 96.0726C807.465 101.741 808.533 108.38 808.533 115.99V122.804H732.997V107.429H785.179C785.179 103.857 784.403 100.693 782.85 97.9362C781.297 95.1796 779.142 93.0247 776.385 91.4717C773.667 89.8798 770.503 89.0839 766.892 89.0839C763.126 89.0839 759.787 89.9575 756.875 91.7047C754.002 93.413 751.75 95.7231 750.12 98.6351C748.489 101.508 747.654 104.711 747.615 108.244V122.862C747.615 127.288 748.431 131.113 750.061 134.335C751.731 137.558 754.08 140.043 757.108 141.79C760.137 143.537 763.728 144.411 767.882 144.411C770.639 144.411 773.163 144.022 775.453 143.246C777.744 142.469 779.705 141.305 781.335 139.752C782.966 138.198 784.209 136.296 785.063 134.044L808.009 135.558C806.844 141.072 804.456 145.886 800.845 150.002C797.273 154.078 792.653 157.262 786.985 159.553C781.355 161.805 774.852 162.931 767.475 162.931ZM821.909 161.183V41.9106H900.881V62.7018H847.126V91.1223H895.639V111.913H847.126V161.183H821.909ZM938.906 41.9106V161.183H914.097V41.9106H938.906ZM955.5 161.183V71.7288H980.31V161.183H955.5ZM967.963 60.1976C964.275 60.1976 961.111 58.9745 958.471 56.5285C955.869 54.0437 954.569 51.0735 954.569 47.618C954.569 44.2013 955.869 41.27 958.471 38.824C961.111 36.3391 964.275 35.0967 967.963 35.0967C971.652 35.0967 974.797 36.3391 977.398 38.824C980.038 41.27 981.358 44.2013 981.358 47.618C981.358 51.0735 980.038 54.0437 977.398 56.5285C974.797 58.9745 971.652 60.1976 967.963 60.1976ZM1017.64 71.7288L1034.06 103.003L1050.89 71.7288H1076.34L1050.43 116.456L1077.04 161.183H1051.71L1034.06 130.259L1016.71 161.183H991.08L1017.64 116.456L992.012 71.7288H1017.64Z" fill="url(#paint13_linear_5049_84)"/>
<defs>
<filter id="filter0_d_5049_84" x="0" y="0" width="266" height="235.958" filterUnits="userSpaceOnUse" color-interpolation-filters="sRGB">
<feFlood flood-opacity="0" result="BackgroundImageFix"/>
<feColorMatrix in="SourceAlpha" type="matrix" values="0 0 0 0 0 0 0 0 0 0 0 0 0 0 0 0 0 0 127 0" result="hardAlpha"/>
<feOffset dx="2" dy="4"/>
<feGaussianBlur stdDeviation="9.5"/>
<feComposite in2="hardAlpha" operator="out"/>
<feColorMatrix type="matrix" values="0 0 0 0 0 0 0 0 0 0 0 0 0 0 0 0 0 0 0.25 0"/>
<feBlend mode="normal" in2="BackgroundImageFix" result="effect1_dropShadow_5049_84"/>
<feBlend mode="normal" in="SourceGraphic" in2="effect1_dropShadow_5049_84" result="shape"/>
</filter>
<filter id="filter1_i_5049_84" x="152.26" y="83.5383" width="92.7396" height="117.024" filterUnits="userSpaceOnUse" color-interpolation-filters="sRGB">
<feFlood flood-opacity="0" result="BackgroundImageFix"/>
<feBlend mode="normal" in="SourceGraphic" in2="BackgroundImageFix" result="shape"/>
<feColorMatrix in="SourceAlpha" type="matrix" values="0 0 0 0 0 0 0 0 0 0 0 0 0 0 0 0 0 0 127 0" result="hardAlpha"/>
<feOffset dx="-11" dy="-1"/>
<feGaussianBlur stdDeviation="0.5"/>
<feComposite in2="hardAlpha" operator="arithmetic" k2="-1" k3="1"/>
<feColorMatrix type="matrix" values="0 0 0 0 0.694118 0 0 0 0 0.47451 0 0 0 0 0.996078 0 0 0 0.2 0"/>
<feBlend mode="normal" in2="shape" result="effect1_innerShadow_5049_84"/>
</filter>
<filter id="filter2_f_5049_84" x="192.284" y="107.373" width="53.2662" height="93.7397" filterUnits="userSpaceOnUse" color-interpolation-filters="sRGB">
<feFlood flood-opacity="0" result="BackgroundImageFix"/>
<feBlend mode="normal" in="SourceGraphic" in2="BackgroundImageFix" result="shape"/>
<feGaussianBlur stdDeviation="0.5" result="effect1_foregroundBlur_5049_84"/>
</filter>
<filter id="filter3_if_5049_84" x="175.195" y="160.887" width="45.6213" height="33.929" filterUnits="userSpaceOnUse" color-interpolation-filters="sRGB">
<feFlood flood-opacity="0" result="BackgroundImageFix"/>
<feBlend mode="normal" in="SourceGraphic" in2="BackgroundImageFix" result="shape"/>
<feColorMatrix in="SourceAlpha" type="matrix" values="0 0 0 0 0 0 0 0 0 0 0 0 0 0 0 0 0 0 127 0" result="hardAlpha"/>
<feOffset dy="4"/>
<feGaussianBlur stdDeviation="0.5"/>
<feComposite in2="hardAlpha" operator="arithmetic" k2="-1" k3="1"/>
<feColorMatrix type="matrix" values="0 0 0 0 0.913725 0 0 0 0 0.835294 0 0 0 0 1 0 0 0 0.2 0"/>
<feBlend mode="normal" in2="shape" result="effect1_innerShadow_5049_84"/>
<feGaussianBlur stdDeviation="0.5" result="effect2_foregroundBlur_5049_84"/>
</filter>
<filter id="filter4_if_5049_84" x="153.609" y="85.3372" width="81.5977" height="97.3374" filterUnits="userSpaceOnUse" color-interpolation-filters="sRGB">
<feFlood flood-opacity="0" result="BackgroundImageFix"/>
<feBlend mode="normal" in="SourceGraphic" in2="BackgroundImageFix" result="shape"/>
<feColorMatrix in="SourceAlpha" type="matrix" values="0 0 0 0 0 0 0 0 0 0 0 0 0 0 0 0 0 0 127 0" result="hardAlpha"/>
<feOffset dx="-1" dy="-1"/>
<feComposite in2="hardAlpha" operator="arithmetic" k2="-1" k3="1"/>
<feColorMatrix type="matrix" values="0 0 0 0 0.682353 0 0 0 0 0.584314 0 0 0 0 0.913725 0 0 0 1 0"/>
<feBlend mode="normal" in2="shape" result="effect1_innerShadow_5049_84"/>
<feGaussianBlur stdDeviation="0.5" result="effect2_foregroundBlur_5049_84"/>
</filter>
<filter id="filter5_i_5049_84" x="152.26" y="83.5383" width="92.7396" height="117.024" filterUnits="userSpaceOnUse" color-interpolation-filters="sRGB">
<feFlood flood-opacity="0" result="BackgroundImageFix"/>
<feBlend mode="normal" in="SourceGraphic" in2="BackgroundImageFix" result="shape"/>
<feColorMatrix in="SourceAlpha" type="matrix" values="0 0 0 0 0 0 0 0 0 0 0 0 0 0 0 0 0 0 127 0" result="hardAlpha"/>
<feOffset dx="-11" dy="-1"/>
<feGaussianBlur stdDeviation="0.5"/>
<feComposite in2="hardAlpha" operator="arithmetic" k2="-1" k3="1"/>
<feColorMatrix type="matrix" values="0 0 0 0 0.694118 0 0 0 0 0.47451 0 0 0 0 0.996078 0 0 0 0.2 0"/>
<feBlend mode="normal" in2="shape" result="effect1_innerShadow_5049_84"/>
</filter>
<filter id="filter6_ii_5049_84" x="17" y="34.6213" width="145.805" height="172.787" filterUnits="userSpaceOnUse" color-interpolation-filters="sRGB">
<feFlood flood-opacity="0" result="BackgroundImageFix"/>
<feBlend mode="normal" in="SourceGraphic" in2="BackgroundImageFix" result="shape"/>
<feColorMatrix in="SourceAlpha" type="matrix" values="0 0 0 0 0 0 0 0 0 0 0 0 0 0 0 0 0 0 127 0" result="hardAlpha"/>
<feOffset dy="30"/>
<feGaussianBlur stdDeviation="0.5"/>
<feComposite in2="hardAlpha" operator="arithmetic" k2="-1" k3="1"/>
<feColorMatrix type="matrix" values="0 0 0 0 0.592157 0 0 0 0 0.490196 0 0 0 0 0.941176 0 0 0 1 0"/>
<feBlend mode="normal" in2="shape" result="effect1_innerShadow_5049_84"/>
<feColorMatrix in="SourceAlpha" type="matrix" values="0 0 0 0 0 0 0 0 0 0 0 0 0 0 0 0 0 0 127 0" result="hardAlpha"/>
<feOffset dx="7" dy="3"/>
<feGaussianBlur stdDeviation="0.5"/>
<feComposite in2="hardAlpha" operator="arithmetic" k2="-1" k3="1"/>
<feColorMatrix type="matrix" values="0 0 0 0 0.537255 0 0 0 0 0.45098 0 0 0 0 0.909804 0 0 0 1 0"/>
<feBlend mode="normal" in2="effect1_innerShadow_5049_84" result="effect2_innerShadow_5049_84"/>
</filter>
<filter id="filter7_i_5049_84" x="47.5798" y="107.923" width="93.0887" height="91.2427" filterUnits="userSpaceOnUse" color-interpolation-filters="sRGB">
<feFlood flood-opacity="0" result="BackgroundImageFix"/>
<feBlend mode="normal" in="SourceGraphic" in2="BackgroundImageFix" result="shape"/>
<feColorMatrix in="SourceAlpha" type="matrix" values="0 0 0 0 0 0 0 0 0 0 0 0 0 0 0 0 0 0 127 0" result="hardAlpha"/>
<feOffset dy="4"/>
<feGaussianBlur stdDeviation="10.5"/>
<feComposite in2="hardAlpha" operator="arithmetic" k2="-1" k3="1"/>
<feColorMatrix type="matrix" values="0 0 0 0 0.45098 0 0 0 0 0.376471 0 0 0 0 0.772549 0 0 0 0.51 0"/>
<feBlend mode="normal" in2="shape" result="effect1_innerShadow_5049_84"/>
</filter>
<filter id="filter8_i_5049_84" x="17.4497" y="82.7395" width="96.2367" height="125.219" filterUnits="userSpaceOnUse" color-interpolation-filters="sRGB">
<feFlood flood-opacity="0" result="BackgroundImageFix"/>
<feBlend mode="normal" in="SourceGraphic" in2="BackgroundImageFix" result="shape"/>
<feColorMatrix in="SourceAlpha" type="matrix" values="0 0 0 0 0 0 0 0 0 0 0 0 0 0 0 0 0 0 127 0" result="hardAlpha"/>
<feOffset dy="2"/>
<feGaussianBlur stdDeviation="1"/>
<feComposite in2="hardAlpha" operator="arithmetic" k2="-1" k3="1"/>
<feColorMatrix type="matrix" values="0 0 0 0 0.537255 0 0 0 0 0.45098 0 0 0 0 0.909804 0 0 0 1 0"/>
<feBlend mode="normal" in2="shape" result="effect1_innerShadow_5049_84"/>
</filter>
<filter id="filter9_ii_5049_84" x="80.3937" y="13" width="152.086" height="199.958" filterUnits="userSpaceOnUse" color-interpolation-filters="sRGB">
<feFlood flood-opacity="0" result="BackgroundImageFix"/>
<feBlend mode="normal" in="SourceGraphic" in2="BackgroundImageFix" result="shape"/>
<feColorMatrix in="SourceAlpha" type="matrix" values="0 0 0 0 0 0 0 0 0 0 0 0 0 0 0 0 0 0 127 0" result="hardAlpha"/>
<feOffset dx="2" dy="11"/>
<feComposite in2="hardAlpha" operator="arithmetic" k2="-1" k3="1"/>
<feColorMatrix type="matrix" values="0 0 0 0 0.854902 0 0 0 0 0.72549 0 0 0 0 1 0 0 0 1 0"/>
<feBlend mode="normal" in2="shape" result="effect1_innerShadow_5049_84"/>
<feColorMatrix in="SourceAlpha" type="matrix" values="0 0 0 0 0 0 0 0 0 0 0 0 0 0 0 0 0 0 127 0" result="hardAlpha"/>
<feOffset dx="-3" dy="-2"/>
<feGaussianBlur stdDeviation="1"/>
<feComposite in2="hardAlpha" operator="arithmetic" k2="-1" k3="1"/>
<feColorMatrix type="matrix" values="0 0 0 0 0.918115 0 0 0 0 0.845083 0 0 0 0 1 0 0 0 1 0"/>
<feBlend mode="normal" in2="effect1_innerShadow_5049_84" result="effect2_innerShadow_5049_84"/>
</filter>
<linearGradient id="paint0_linear_5049_84" x1="245" y1="86.8403" x2="154.773" y2="199.472" gradientUnits="userSpaceOnUse">
<stop stop-color="#8973E8"/>
<stop offset="0.383437" stop-color="#5B4FBE"/>
<stop offset="0.886394" stop-color="#834FBE"/>
</linearGradient>
<linearGradient id="paint1_linear_5049_84" x1="161.168" y1="84.5383" x2="237.092" y2="200.562" gradientUnits="userSpaceOnUse">
<stop offset="0.349182"/>
<stop offset="1" stop-opacity="0"/>
</linearGradient>
<linearGradient id="paint2_linear_5049_84" x1="194.633" y1="142.101" x2="253.544" y2="204.609" gradientUnits="userSpaceOnUse">
<stop offset="0.215487" stop-color="#695BCB"/>
<stop offset="0.509166" stop-color="#887FD4" stop-opacity="0.71"/>
<stop offset="1" stop-color="#5047AA"/>
</linearGradient>
<linearGradient id="paint3_linear_5049_84" x1="198.681" y1="164.136" x2="198.681" y2="193.816" gradientUnits="userSpaceOnUse">
<stop stop-color="#B9A0F7"/>
<stop offset="1" stop-color="#A685F9"/>
</linearGradient>
<linearGradient id="paint4_linear_5049_84" x1="176.195" y1="125.911" x2="223.414" y2="168.183" gradientUnits="userSpaceOnUse">
<stop offset="0.345564" stop-color="#483DA8"/>
<stop offset="0.707765" stop-color="#695BCB"/>
</linearGradient>
<linearGradient id="paint5_linear_5049_84" x1="165.604" y1="84.5383" x2="234.202" y2="199.641" gradientUnits="userSpaceOnUse">
<stop offset="0.113606" stop-color="#834FBE"/>
<stop offset="0.616563" stop-color="#5B4FBE"/>
<stop offset="1" stop-color="#8973E8"/>
</linearGradient>
<linearGradient id="paint6_linear_5049_84" x1="23.5802" y1="34.6213" x2="155.225" y2="206.408" gradientUnits="userSpaceOnUse">
<stop stop-color="#7C68E1"/>
<stop offset="1" stop-color="#44397B"/>
</linearGradient>
<linearGradient id="paint7_linear_5049_84" x1="75.9112" y1="34.1716" x2="17.4497" y2="219" gradientUnits="userSpaceOnUse">
<stop stop-color="#A285F7"/>
<stop offset="1" stop-color="#4741AA"/>
</linearGradient>
<linearGradient id="paint8_linear_5049_84" x1="125.89" y1="107.923" x2="21.9467" y2="234.74" gradientUnits="userSpaceOnUse">
<stop offset="0.284062" stop-color="#2A2558"/>
<stop offset="1" stop-color="#6C47B2"/>
</linearGradient>
<linearGradient id="paint9_linear_5049_84" x1="107.702" y1="82.7395" x2="20.8102" y2="207.919" gradientUnits="userSpaceOnUse">
<stop stop-color="#5948BA"/>
<stop offset="1" stop-color="#483CA6"/>
</linearGradient>
<linearGradient id="paint10_linear_5049_84" x1="136.973" y1="75.7197" x2="42.2815" y2="193.191" gradientUnits="userSpaceOnUse">
<stop stop-color="#DAB9FF"/>
<stop offset="1" stop-color="#473DA9"/>
</linearGradient>
<linearGradient id="paint11_linear_5049_84" x1="83.1064" y1="212.254" x2="232.408" y2="28.2475" gradientUnits="userSpaceOnUse">
<stop stop-color="#B279FF"/>
<stop offset="0.439886" stop-color="#DBC2FE"/>
<stop offset="0.819705" stop-color="#B279FF"/>
</linearGradient>
<linearGradient id="paint12_linear_5049_84" x1="202.71" y1="16.1834" x2="112.805" y2="212.254" gradientUnits="userSpaceOnUse">
<stop stop-color="#0B083D" stop-opacity="0.38"/>
<stop offset="1" stop-color="#4A0785"/>
</linearGradient>
<linearGradient id="paint13_linear_5049_84" x1="676.047" y1="19.1833" x2="681.483" y2="284.098" gradientUnits="userSpaceOnUse">
<stop offset="0.0755977" stop-color="#5648B1"/>
<stop offset="0.534623" stop-color="#A942FE"/>
<stop offset="0.755909" stop-color="#B27AFF"/>
<stop offset="0.934798" stop-color="#B27AFF"/>
</linearGradient>
</defs>
</svg>
